<mxfile host="app.diagrams.net" modified="2021-03-17T12:45:22.826Z" agent="5.0 (Windows NT 10.0; Win64; x64) AppleWebKit/537.36 (KHTML, like Gecko) Chrome/89.0.4389.82 Safari/537.36" etag="TQU4XFVkPJ2LQY9I1dQg" version="14.4.8" type="github">
  <diagram id="C5RBs43oDa-KdzZeNtuy" name="Page-1">
    <mxGraphModel dx="1422" dy="774" grid="1" gridSize="10" guides="1" tooltips="1" connect="1" arrows="1" fold="1" page="1" pageScale="1" pageWidth="827" pageHeight="1169" math="0" shadow="0">
      <root>
        <mxCell id="WIyWlLk6GJQsqaUBKTNV-0" />
        <mxCell id="WIyWlLk6GJQsqaUBKTNV-1" parent="WIyWlLk6GJQsqaUBKTNV-0" />
        <mxCell id="WIyWlLk6GJQsqaUBKTNV-3" value="html" style="rounded=1;whiteSpace=wrap;html=1;fontSize=12;glass=0;strokeWidth=1;shadow=0;verticalAlign=middle;fontStyle=1" parent="WIyWlLk6GJQsqaUBKTNV-1" vertex="1">
          <mxGeometry x="340" y="80" width="120" height="40" as="geometry" />
        </mxCell>
        <mxCell id="WIyWlLk6GJQsqaUBKTNV-7" value="body" style="rounded=1;whiteSpace=wrap;html=1;fontSize=12;glass=0;strokeWidth=1;shadow=0;fontStyle=1" parent="WIyWlLk6GJQsqaUBKTNV-1" vertex="1">
          <mxGeometry x="414" y="180" width="120" height="40" as="geometry" />
        </mxCell>
        <mxCell id="WIyWlLk6GJQsqaUBKTNV-11" value="title" style="rounded=1;whiteSpace=wrap;html=1;fontSize=12;glass=0;strokeWidth=1;shadow=0;fontStyle=1" parent="WIyWlLk6GJQsqaUBKTNV-1" vertex="1">
          <mxGeometry x="210" y="280" width="120" height="40" as="geometry" />
        </mxCell>
        <mxCell id="WIyWlLk6GJQsqaUBKTNV-12" value="head" style="rounded=1;whiteSpace=wrap;html=1;fontSize=12;glass=0;strokeWidth=1;shadow=0;fontStyle=1" parent="WIyWlLk6GJQsqaUBKTNV-1" vertex="1">
          <mxGeometry x="260" y="180" width="120" height="40" as="geometry" />
        </mxCell>
        <mxCell id="4bZcTmgIlxlS2HLSknan-2" value="" style="strokeWidth=2;html=1;shape=mxgraph.flowchart.annotation_2;align=left;labelPosition=right;pointerEvents=1;rotation=90;" vertex="1" parent="WIyWlLk6GJQsqaUBKTNV-1">
          <mxGeometry x="375" y="100" width="50" height="100" as="geometry" />
        </mxCell>
        <mxCell id="4bZcTmgIlxlS2HLSknan-4" value="" style="endArrow=classic;html=1;exitX=0.5;exitY=1;exitDx=0;exitDy=0;" edge="1" parent="WIyWlLk6GJQsqaUBKTNV-1" source="WIyWlLk6GJQsqaUBKTNV-12">
          <mxGeometry width="50" height="50" relative="1" as="geometry">
            <mxPoint x="320" y="240" as="sourcePoint" />
            <mxPoint x="290" y="280" as="targetPoint" />
          </mxGeometry>
        </mxCell>
        <mxCell id="4bZcTmgIlxlS2HLSknan-5" value="" style="endArrow=classic;html=1;" edge="1" parent="WIyWlLk6GJQsqaUBKTNV-1" target="4bZcTmgIlxlS2HLSknan-6">
          <mxGeometry width="50" height="50" relative="1" as="geometry">
            <mxPoint x="480" y="220" as="sourcePoint" />
            <mxPoint x="510" y="280" as="targetPoint" />
          </mxGeometry>
        </mxCell>
        <mxCell id="4bZcTmgIlxlS2HLSknan-6" value="body" style="rounded=1;whiteSpace=wrap;html=1;arcSize=50;fontStyle=1" vertex="1" parent="WIyWlLk6GJQsqaUBKTNV-1">
          <mxGeometry x="450" y="280" width="120" height="50" as="geometry" />
        </mxCell>
        <mxCell id="4bZcTmgIlxlS2HLSknan-7" value="" style="endArrow=classic;html=1;exitX=0.5;exitY=1;exitDx=0;exitDy=0;" edge="1" parent="WIyWlLk6GJQsqaUBKTNV-1" source="4bZcTmgIlxlS2HLSknan-6">
          <mxGeometry width="50" height="50" relative="1" as="geometry">
            <mxPoint x="470" y="350" as="sourcePoint" />
            <mxPoint x="510" y="360" as="targetPoint" />
          </mxGeometry>
        </mxCell>
        <mxCell id="4bZcTmgIlxlS2HLSknan-8" value="div" style="rounded=1;whiteSpace=wrap;html=1;fontStyle=1" vertex="1" parent="WIyWlLk6GJQsqaUBKTNV-1">
          <mxGeometry x="470" y="360" width="90" height="40" as="geometry" />
        </mxCell>
        <mxCell id="4bZcTmgIlxlS2HLSknan-9" value="" style="strokeWidth=2;html=1;shape=mxgraph.flowchart.annotation_2;align=left;labelPosition=right;pointerEvents=1;rotation=90;" vertex="1" parent="WIyWlLk6GJQsqaUBKTNV-1">
          <mxGeometry x="488.75" y="386.25" width="50" height="87.5" as="geometry" />
        </mxCell>
        <mxCell id="4bZcTmgIlxlS2HLSknan-10" value="p" style="ellipse;whiteSpace=wrap;html=1;aspect=fixed;fontStyle=1" vertex="1" parent="WIyWlLk6GJQsqaUBKTNV-1">
          <mxGeometry x="444" y="450" width="60" height="60" as="geometry" />
        </mxCell>
        <mxCell id="4bZcTmgIlxlS2HLSknan-11" value="br" style="ellipse;whiteSpace=wrap;html=1;aspect=fixed;fontStyle=1" vertex="1" parent="WIyWlLk6GJQsqaUBKTNV-1">
          <mxGeometry x="530" y="450" width="60" height="60" as="geometry" />
        </mxCell>
      </root>
    </mxGraphModel>
  </diagram>
</mxfile>
